<svg data-name="Слой 1" xmlns="http://www.w3.org/2000/svg" width="26" height="24"><path d="M0 1a1 1 0 0 1 1-1h3.44a1 1 0 0 1 .93.72L9.3 15.16H20l3.56-8.31H11.7a1 1 0 0 1-1-1 1 1 0 0 1 1-1H25a1 1 0 0 1 .8.44 1 1 0 0 1 .08.93l-4.4 10.27a1 1 0 0 1-.88.59H8.57a1 1 0 0 1-.92-.72L3.72 2H1a1 1 0 0 1-1-1zm5.48 20.8a2.2 2.2 0 0 1 2.18-2.22 2.22 2.22 0 0 1 0 4.44 2.21 2.21 0 0 1-2.18-2.24zm13.64.15a2.2 2.2 0 0 1 2-2.37 2.2 2.2 0 0 1 2.33 2.06 2.24 2.24 0 0 1-2 2.38h-.16a2.2 2.2 0 0 1-2.17-2.07z" fill="#fff"/></svg>